<svg width="520" height="480" viewBox="0 0 520 480" xmlns="http://www.w3.org/2000/svg">
<path d="M0 340.5V139H201.5L342 0V479.5L201.5 340.5H0Z" fill="black"/>
<path d="M390.223 325.213C401.239 315.97 410.293 304.608 416.868 291.776C423.443 278.944 427.411 264.893 428.545 250.426C429.679 235.959 427.957 221.358 423.477 207.458C418.997 193.558 411.846 180.631 402.434 169.414L392.154 178.04C400.413 187.882 406.686 199.225 410.617 211.422C414.548 223.618 416.06 236.429 415.065 249.124C414.07 261.818 410.588 274.147 404.819 285.406C399.049 296.665 391.105 306.635 381.44 314.745L390.223 325.213Z" fill="black"/>
<path d="M418.889 359.515C434.137 346.721 446.652 330.972 455.719 313.169C464.787 295.366 470.229 275.857 471.735 255.756C473.241 235.655 470.782 215.355 464.498 196.016C458.214 176.676 448.229 158.676 435.111 143.043L420.881 154.984C432.391 168.701 441.153 184.495 446.667 201.464C452.18 218.433 454.338 236.245 453.016 253.883C451.695 271.52 446.919 288.639 438.963 304.26C431.007 319.881 420.026 333.699 406.647 344.926L418.889 359.515Z" fill="black"/>
<path d="M459.363 380.031C476.781 365.415 490.993 347.325 501.187 326.793C511.381 306.261 517.358 283.689 518.777 260.366C520.195 237.044 517.027 213.427 509.454 190.864C501.88 168.302 490.05 147.235 474.637 128.867L458.382 142.507C471.905 158.624 482.286 177.109 488.931 196.906C495.576 216.704 498.356 237.426 497.111 257.89C495.867 278.355 490.622 298.16 481.678 316.176C472.733 334.191 460.263 350.065 444.979 362.889L459.363 380.031Z" fill="black"/>
</svg>
